<svg width="9" height="5" viewBox="0 0 9 5" fill="none" xmlns="http://www.w3.org/2000/svg">
<path d="M4.5 0C4.57816 0 4.64729 0.0286341 4.70742 0.0859108L8.90982 4.08935C8.96994 4.14662 9 4.21248 9 4.28694C9 4.3614 8.96994 4.42726 8.90982 4.48454L8.45892 4.91409C8.3988 4.97137 8.32966 5 8.2515 5C8.17334 5 8.10421 4.97137 8.04409 4.91409L4.5 1.5378L0.955912 4.91409C0.895789 4.97137 0.826656 5 0.748497 5C0.670338 5 0.601205 4.97137 0.541082 4.91409L0.0901804 4.48454C0.0300571 4.42726 0 4.3614 0 4.28694C0 4.21248 0.0300571 4.14662 0.0901804 4.08935L4.29259 0.0859108C4.35271 0.0286341 4.42184 0 4.5 0Z" fill="#22292E"/>
</svg>
