<svg width="13" height="13" viewBox="0 0 13 13" fill="none" xmlns="http://www.w3.org/2000/svg">
<path d="M4.40165 5.57886H1.21655C0.894056 5.57856 0.584853 5.45035 0.356782 5.22235C0.128711 4.99434 0.000398985 4.68518 0 4.36269V1.21715C0.000398985 0.894656 0.128711 0.585493 0.356782 0.357492C0.584853 0.129492 0.894056 0.00127566 1.21655 0.000976562H4.40165C4.72408 0.00137536 5.03318 0.129635 5.26117 0.357625C5.48916 0.585615 5.61742 0.894721 5.61782 1.21715V4.36269C5.61742 4.68512 5.48916 4.99422 5.26117 5.22221C5.03318 5.4502 4.72408 5.57846 4.40165 5.57886ZM1.21655 0.942869C1.1438 0.942968 1.07406 0.971885 1.02258 1.02329C0.971104 1.07469 0.942091 1.1444 0.941892 1.21715V4.36269C0.942091 4.43544 0.971104 4.50514 1.02258 4.55655C1.07406 4.60795 1.1438 4.63687 1.21655 4.63697H4.40165C4.47436 4.63687 4.54407 4.60794 4.59548 4.55652C4.6469 4.50511 4.67583 4.4354 4.67593 4.36269V1.21715C4.67583 1.14443 4.6469 1.07473 4.59548 1.02331C4.54407 0.971897 4.47436 0.942968 4.40165 0.942869H1.21655Z" fill="#22292E"/>
<path d="M4.41727 12.999H1.23217C0.909647 12.9986 0.600445 12.8703 0.372384 12.6423C0.144323 12.4142 0.0160238 12.105 0.015625 11.7825V8.63731C0.016024 8.31482 0.144336 8.00566 0.372407 7.77766C0.600478 7.54966 0.909681 7.42144 1.23217 7.42114H4.41727C4.73957 7.42174 5.04848 7.55009 5.27631 7.77806C5.50414 8.00603 5.63229 8.31502 5.63269 8.63731V11.7825C5.63239 12.1048 5.50428 12.4139 5.27644 12.642C5.0486 12.87 4.73963 12.9984 4.41727 12.999ZM1.23217 8.36303C1.15943 8.36313 1.08968 8.39205 1.0382 8.44346C0.986729 8.49486 0.957716 8.56457 0.957517 8.63731V11.7825C0.957617 11.8553 0.986585 11.9251 1.03807 11.9766C1.08956 12.0281 1.15936 12.057 1.23217 12.0571H4.41727C4.49002 12.0569 4.55973 12.0279 4.61113 11.9764C4.66254 11.925 4.69145 11.8552 4.69155 11.7825V8.63731C4.69145 8.5646 4.66252 8.49489 4.61111 8.44348C4.55969 8.39206 4.48999 8.36313 4.41727 8.36303H1.23217Z" fill="#22292E"/>
<path d="M11.782 12.999H8.59692C8.27439 12.9986 7.96519 12.8703 7.73713 12.6423C7.50907 12.4142 7.38077 12.105 7.38037 11.7825V8.63731C7.38077 8.31482 7.50908 8.00566 7.73715 7.77766C7.96522 7.54966 8.27443 7.42144 8.59692 7.42114H11.782C12.1044 7.42154 12.4136 7.5498 12.6415 7.77779C12.8695 8.00578 12.9978 8.31489 12.9982 8.63731V11.7825C12.9979 12.105 12.8697 12.4142 12.6417 12.6422C12.4137 12.8703 12.1045 12.9986 11.782 12.999ZM8.59692 8.36492C8.52417 8.36502 8.45443 8.39394 8.40295 8.44534C8.35147 8.49675 8.32246 8.56645 8.32226 8.6392V11.7844C8.32236 11.8572 8.35133 11.927 8.40282 11.9785C8.4543 12.0299 8.52411 12.0589 8.59692 12.059H11.782C11.8548 12.0588 11.9245 12.0298 11.9759 11.9783C12.0273 11.9269 12.0562 11.8571 12.0563 11.7844V8.63731C12.0562 8.5646 12.0273 8.49489 11.9759 8.44348C11.9244 8.39206 11.8547 8.36313 11.782 8.36303L8.59692 8.36492Z" fill="#22292E"/>
<path d="M10.1911 5.57885C9.64059 5.57476 9.10361 5.40778 8.64786 5.09895C8.19211 4.79012 7.838 4.35328 7.63015 3.8435C7.42231 3.33371 7.37005 2.7738 7.47995 2.23435C7.58985 1.6949 7.85701 1.20007 8.24773 0.812232C8.63845 0.424393 9.13525 0.160912 9.67549 0.0550055C10.2157 -0.0509013 10.7752 0.00550717 11.2835 0.21712C11.7917 0.428732 12.2259 0.786075 12.5314 1.2441C12.8368 1.70212 12.9998 2.24033 12.9998 2.79085C12.9961 3.53273 12.6984 4.24287 12.1718 4.76551C11.6453 5.28816 10.933 5.58066 10.1911 5.57885ZM10.1911 0.944746C9.82689 0.948834 9.47202 1.06057 9.17117 1.26589C8.87032 1.47122 8.63693 1.76095 8.50037 2.09862C8.36382 2.43629 8.3302 2.80681 8.40376 3.16355C8.47731 3.52028 8.65475 3.84728 8.91374 4.1034C9.17273 4.35951 9.50169 4.53329 9.85922 4.60286C10.2168 4.67243 10.5869 4.63468 10.923 4.49436C11.2591 4.35405 11.5462 4.11744 11.7482 3.81431C11.9501 3.51118 12.0579 3.15509 12.0579 2.79085C12.0549 2.29839 11.8567 1.82723 11.5067 1.48077C11.1567 1.13431 10.6836 0.940857 10.1911 0.942862V0.944746Z" fill="#22292E"/>
</svg>
