<svg width="13" height="13" viewBox="0 0 13 13" fill="none" xmlns="http://www.w3.org/2000/svg">
<path d="M12.5 3.05321H4C3.86739 3.05321 3.74021 3.00133 3.64645 2.90898C3.55268 2.81663 3.5 2.69138 3.5 2.56078C3.5 2.43018 3.55268 2.30493 3.64645 2.21259C3.74021 2.12024 3.86739 2.06836 4 2.06836H12.5C12.6326 2.06836 12.7598 2.12024 12.8536 2.21259C12.9473 2.30493 13 2.43018 13 2.56078C13 2.69138 12.9473 2.81663 12.8536 2.90898C12.7598 3.00133 12.6326 3.05321 12.5 3.05321Z" fill="#22292E"/>
<path d="M2 3.05321H0.5C0.367392 3.05321 0.240215 3.00133 0.146447 2.90898C0.0526784 2.81663 0 2.69138 0 2.56078C0 2.43018 0.0526784 2.30493 0.146447 2.21259C0.240215 2.12024 0.367392 2.06836 0.5 2.06836H2C2.13261 2.06836 2.25979 2.12024 2.35355 2.21259C2.44732 2.30493 2.5 2.43018 2.5 2.56078C2.5 2.69138 2.44732 2.81663 2.35355 2.90898C2.25979 3.00133 2.13261 3.05321 2 3.05321Z" fill="#22292E"/>
<path d="M9 6.99242H0.5C0.367392 6.99242 0.240215 6.94054 0.146447 6.84819C0.0526784 6.75584 0 6.63059 0 6.49999C0 6.36939 0.0526784 6.24414 0.146447 6.1518C0.240215 6.05945 0.367392 6.00757 0.5 6.00757H9C9.13261 6.00757 9.25979 6.05945 9.35355 6.1518C9.44732 6.24414 9.5 6.36939 9.5 6.49999C9.5 6.63059 9.44732 6.75584 9.35355 6.84819C9.25979 6.94054 9.13261 6.99242 9 6.99242Z" fill="#22292E"/>
<path d="M4 10.9319H0.5C0.367392 10.9319 0.240215 10.88 0.146447 10.7876C0.0526784 10.6953 0 10.57 0 10.4394C0 10.3088 0.0526784 10.1836 0.146447 10.0912C0.240215 9.9989 0.367392 9.94702 0.5 9.94702H4C4.13261 9.94702 4.25979 9.9989 4.35355 10.0912C4.44732 10.1836 4.5 10.3088 4.5 10.4394C4.5 10.57 4.44732 10.6953 4.35355 10.7876C4.25979 10.88 4.13261 10.9319 4 10.9319Z" fill="#22292E"/>
<path d="M3 4.03804C2.70333 4.03804 2.41332 3.9514 2.16665 3.78908C1.91997 3.62675 1.72771 3.39603 1.61418 3.1261C1.50065 2.85616 1.47094 2.55913 1.52882 2.27257C1.5867 1.98601 1.72956 1.72278 1.93934 1.51618C2.14912 1.30958 2.41639 1.16888 2.70737 1.11188C2.99834 1.05488 3.29994 1.08414 3.57403 1.19595C3.84811 1.30776 4.08238 1.4971 4.2472 1.74004C4.41203 1.98298 4.5 2.26859 4.5 2.56077C4.5 2.95257 4.34197 3.32832 4.06066 3.60536C3.77936 3.8824 3.39783 4.03804 3 4.03804ZM3 2.06835C2.90111 2.06835 2.80444 2.09723 2.72222 2.15133C2.63999 2.20544 2.5759 2.28235 2.53806 2.37233C2.50022 2.46231 2.49032 2.56132 2.50961 2.65684C2.5289 2.75236 2.57652 2.8401 2.64645 2.90897C2.71637 2.97783 2.80546 3.02473 2.90246 3.04373C2.99945 3.06273 3.09998 3.05298 3.19134 3.01571C3.28271 2.97844 3.36079 2.91532 3.41574 2.83435C3.47068 2.75337 3.5 2.65816 3.5 2.56077C3.5 2.43017 3.44732 2.30492 3.35355 2.21257C3.25979 2.12023 3.13261 2.06835 3 2.06835Z" fill="#22292E"/>
<path d="M10 7.97725C9.70333 7.97725 9.41332 7.89061 9.16665 7.72829C8.91997 7.56596 8.72771 7.33524 8.61418 7.06531C8.50065 6.79537 8.47094 6.49834 8.52882 6.21178C8.5867 5.92521 8.72956 5.66199 8.93934 5.45539C9.14912 5.24879 9.41639 5.10809 9.70736 5.05109C9.99834 4.99409 10.2999 5.02335 10.574 5.13516C10.8481 5.24697 11.0824 5.43631 11.2472 5.67925C11.412 5.92219 11.5 6.2078 11.5 6.49998C11.5 6.89178 11.342 7.26753 11.0607 7.54457C10.7794 7.82161 10.3978 7.97725 10 7.97725ZM10 6.00755C9.90111 6.00755 9.80444 6.03643 9.72222 6.09054C9.63999 6.14465 9.5759 6.22156 9.53806 6.31154C9.50022 6.40151 9.49032 6.50053 9.50961 6.59605C9.5289 6.69157 9.57652 6.77931 9.64645 6.84818C9.71637 6.91704 9.80546 6.96394 9.90246 6.98294C9.99945 7.00194 10.1 6.99219 10.1913 6.95492C10.2827 6.91765 10.3608 6.85453 10.4157 6.77356C10.4707 6.69258 10.5 6.59737 10.5 6.49998C10.5 6.36938 10.4473 6.24413 10.3536 6.15178C10.2598 6.05943 10.1326 6.00755 10 6.00755Z" fill="#22292E"/>
<path d="M5 11.9167C4.70333 11.9167 4.41332 11.8301 4.16665 11.6677C3.91997 11.5054 3.72771 11.2747 3.61418 11.0048C3.50065 10.7348 3.47094 10.4378 3.52882 10.1512C3.5867 9.86467 3.72956 9.60144 3.93934 9.39484C4.14912 9.18824 4.41639 9.04755 4.70737 8.99054C4.99834 8.93354 5.29994 8.9628 5.57403 9.07461C5.84811 9.18642 6.08238 9.37577 6.2472 9.6187C6.41203 9.86164 6.5 10.1473 6.5 10.4394C6.5 10.8312 6.34197 11.207 6.06066 11.484C5.77936 11.7611 5.39783 11.9167 5 11.9167ZM5 9.94701C4.90111 9.94701 4.80444 9.97589 4.72222 10.03C4.63999 10.0841 4.5759 10.161 4.53806 10.251C4.50022 10.341 4.49032 10.44 4.50961 10.5355C4.5289 10.631 4.57652 10.7188 4.64645 10.7876C4.71637 10.8565 4.80547 10.9034 4.90246 10.9224C4.99945 10.9414 5.09998 10.9316 5.19134 10.8944C5.28271 10.8571 5.36079 10.794 5.41574 10.713C5.47068 10.632 5.5 10.5368 5.5 10.4394C5.5 10.3088 5.44732 10.1836 5.35355 10.0912C5.25979 9.99889 5.13261 9.94701 5 9.94701Z" fill="#22292E"/>
<path d="M12.5 6.99242H11C10.8674 6.99242 10.7402 6.94054 10.6464 6.84819C10.5527 6.75584 10.5 6.63059 10.5 6.49999C10.5 6.36939 10.5527 6.24414 10.6464 6.1518C10.7402 6.05945 10.8674 6.00757 11 6.00757H12.5C12.6326 6.00757 12.7598 6.05945 12.8536 6.1518C12.9473 6.24414 13 6.36939 13 6.49999C13 6.63059 12.9473 6.75584 12.8536 6.84819C12.7598 6.94054 12.6326 6.99242 12.5 6.99242Z" fill="#22292E"/>
<path d="M12.5 10.9319H6C5.86739 10.9319 5.74021 10.88 5.64645 10.7876C5.55268 10.6953 5.5 10.57 5.5 10.4394C5.5 10.3088 5.55268 10.1836 5.64645 10.0912C5.74021 9.9989 5.86739 9.94702 6 9.94702H12.5C12.6326 9.94702 12.7598 9.9989 12.8536 10.0912C12.9473 10.1836 13 10.3088 13 10.4394C13 10.57 12.9473 10.6953 12.8536 10.7876C12.7598 10.88 12.6326 10.9319 12.5 10.9319Z" fill="#22292E"/>
</svg>
